<?xml version="1.0" encoding="utf-8"?>
<!-- Generator: Adobe Illustrator 19.1.0, SVG Export Plug-In . SVG Version: 6.00 Build 0)  -->
<svg version="1.1" xmlns="http://www.w3.org/2000/svg" xmlns:xlink="http://www.w3.org/1999/xlink" x="0px" y="0px"
	 viewBox="0 0 280 280" enable-background="new 0 0 280 280" xml:space="preserve">
<g id="Layer_1">
</g>
<g id="Layer_2">
	<g id="white">
	</g>
</g>
<g id="Layer_4">
	<path fill="none" stroke="#FFFFFF" stroke-width="0.5" stroke-miterlimit="10" d="M161.204,159.33l21.505,20.26l-6.793,28.754
		l-28.298,8.493l-21.505-20.26l6.793-28.754L161.204,159.33z M103.993,71.494L97.2,100.247l21.505,20.26l28.298-8.493l6.793-28.754
		L132.291,63L103.993,71.494z M161.204,159.33l-14.202-47.316l-28.298,8.493l14.202,47.316L161.204,159.33z M132.416,63.203
		l21.327,19.887l25.505-14.138l-5.565-28.625l-28.944-3.553L132.416,63.203z M100.846,210.786l5.347,28.667l28.916,3.773
		l12.524-26.335l-21.176-20.049L100.846,210.786z M154.509,164.75l15.379,25.227l29.537-0.705l14.158-25.932l-15.379-25.227
		l-29.537,0.705L154.509,164.75z M66.234,116.554l15.379,25.227l29.537-0.705l14.158-25.932l-15.379-25.227l-29.537,0.705
		L66.234,116.554z M168.667,138.818l-43.36-23.673l-14.158,25.932l43.36,23.673L168.667,138.818z M80.624,90.678l29.149-0.845
		l8.204-27.983L93.897,45.4L70.812,63.218L80.624,90.678z M161.904,217.843l23.953,16.632l23.22-17.641l-9.603-27.535l-29.154,0.624
		L161.904,217.843z M167.851,146.876l28.781,6.678l20.174-21.586l-8.607-28.264l-28.781-6.678l-20.174,21.586L167.851,146.876z
		 M71.638,176.174l28.781,6.678l20.174-21.586l-8.607-28.264l-28.781-6.678L63.031,147.91L71.638,176.174z M159.245,118.612
		l-47.259,14.391l8.607,28.264l47.259-14.391L159.245,118.612z M63.234,147.784l19.802-21.407l-14.24-25.448l-28.603,5.679
		l-3.437,28.958L63.234,147.784z M210.942,178.763l28.645-5.462l3.657-28.931l-26.385-12.418l-19.964,21.256L210.942,178.763z
		 M165.086,125.97l25.583-14.78l-0.008-29.545L165.07,66.879l-25.583,14.78l0.008,29.545L165.086,125.97z M114.823,213.085
		l25.583-14.78l-0.008-29.545l-25.591-14.765l-25.583,14.78l0.008,29.545L114.823,213.085z M139.495,111.204l-24.689,42.79
		l25.591,14.765l24.689-42.79L139.495,111.204z M89.294,198.089l-0.158-29.161l-27.782-8.861l-17.012,23.684l17.268,23.499
		L89.294,198.089z M218.34,119.829l17.192-23.555l-17.089-23.629l-27.753,8.951l-0.063,29.161L218.34,119.829z"/>
</g>
</svg>
